<svg xmlns="http://www.w3.org/2000/svg" viewBox="0 0 160 80">
  <!-- Corps principal -->
  <rect x="5" y="10" width="150" height="45" rx="4" fill="{{COLOR}}"/>
  <rect x="5" y="40" width="150" height="15" fill="#ecf0f1"/>
  <rect x="5" y="48" width="150" height="6" fill="#7f8c8d"/>
  <!-- Vitre extrême gauche (avant) -->
  <rect x="4.5" y="14" width="5" height="21" fill="#458bba" fill-opacity="0.82" stroke="#111" stroke-width="1"/>
  <!-- Fenêtre porte avant (16px) -->
  <rect x="14" y="14" width="16" height="21" fill="#458bba" fill-opacity="0.82" stroke="#111" stroke-width="1.5"/>
  <!-- Destination / numéro de ligne (avant = gauche) -->
  <rect x="36" y="14" width="40" height="21" fill="{{COLOR}}" stroke="#111" stroke-width="1.5"/>
  <text x="56" y="29" font-family="Arial,sans-serif" font-size="14" font-weight="bold" fill="#fff" text-anchor="middle">{{LINE}}</text>
  <!-- Fenêtre porte arrière -->
  <rect x="82" y="14" width="16" height="21" fill="#458bba" fill-opacity="0.82" stroke="#111" stroke-width="1.5"/>
  <!-- Fenêtres passagers -->
  <rect x="103" y="14" width="21" height="21" fill="#458bba" fill-opacity="0.82" stroke="#111" stroke-width="1.5"/>
  <rect x="129" y="14" width="21" height="21" fill="#458bba" fill-opacity="0.82" stroke="#111" stroke-width="1.5"/>
  <!-- Contour -->
  <rect x="5" y="10" width="150" height="45" rx="4" fill="none" stroke="#111" stroke-width="2"/>
  <!-- Rétroviseur (avant = gauche, dépasse à gauche) -->
  <line x1="5" y1="24" x2="11" y2="24" stroke="#111" stroke-width="2" stroke-linecap="round"/>
  <rect x="2" y="20" width="6" height="10" rx="1" fill="#111"/>
  <!-- Roues -->
  <circle cx="45" cy="54" r="10" fill="#333" stroke="#111" stroke-width="2"/>
  <circle cx="45" cy="54" r="6" fill="#666"/>
  <circle cx="45" cy="54" r="2" fill="#111"/>
  <circle cx="115" cy="54" r="10" fill="#333" stroke="#111" stroke-width="2"/>
  <circle cx="115" cy="54" r="6" fill="#666"/>
  <circle cx="115" cy="54" r="2" fill="#111"/>
  <!-- Feux inversés (jaune=avant gauche, rouge=arrière droite) -->
  <rect x="5" y="48" width="4" height="5" fill="#FFCC00"/>
  <rect x="151" y="48" width="4" height="5" fill="#FF4444"/>
</svg>
