<svg xmlns="http://www.w3.org/2000/svg" viewBox="0 0 160 80">
  <!-- Corps principal -->
  <rect x="5" y="10" width="150" height="45" rx="4" fill="{{COLOR}}"/>
  <rect x="5" y="40" width="150" height="15" fill="#ecf0f1"/>
  <rect x="5" y="48" width="150" height="6" fill="#7f8c8d"/>
  <!-- Portes -->
  <rect x="62" y="14" width="8" height="37" fill="#7f8c8d" stroke="#111" stroke-width="1.5"/>
  <rect x="70" y="14" width="8" height="37" fill="#7f8c8d" stroke="#111" stroke-width="1.5"/>
  <rect x="130" y="14" width="8" height="37" fill="#7f8c8d" stroke="#111" stroke-width="1.5"/>
  <rect x="138" y="14" width="8" height="37" fill="#7f8c8d" stroke="#111" stroke-width="1.5"/>
  <!-- Contour -->
  <rect x="5" y="10" width="150" height="45" rx="4" fill="none" stroke="#111" stroke-width="2"/>
  <!-- Fenêtres passagers -->
  <rect x="10" y="14" width="21" height="21" fill="#458bba" fill-opacity="0.82" stroke="#111" stroke-width="1.5"/>
  <rect x="36" y="14" width="21" height="21" fill="#458bba" fill-opacity="0.82" stroke="#111" stroke-width="1.5"/>
  <!-- Destination / numéro de ligne (avant = droite) -->
  <rect x="84" y="14" width="40" height="21" fill="{{COLOR}}" stroke="#111" stroke-width="1.5"/>
  <text x="104" y="29" font-family="Arial,sans-serif" font-size="14" font-weight="bold" fill="#fff" text-anchor="middle">{{LINE}}</text>
  <!-- Fenêtre arrière -->
  <rect x="150.5" y="14" width="5" height="21" fill="#458bba" fill-opacity="0.82" stroke="#111" stroke-width="1"/>
  <!-- Rétroviseur (avant = droite) -->
  <line x1="149" y1="24" x2="155" y2="24" stroke="#111" stroke-width="2" stroke-linecap="round"/>
  <rect x="152" y="20" width="6" height="10" rx="1" fill="#111"/>
  <!-- Roues -->
  <circle cx="45" cy="54" r="10" fill="#333" stroke="#111" stroke-width="2"/>
  <circle cx="45" cy="54" r="6" fill="#666"/>
  <circle cx="45" cy="54" r="2" fill="#111"/>
  <circle cx="115" cy="54" r="10" fill="#333" stroke="#111" stroke-width="2"/>
  <circle cx="115" cy="54" r="6" fill="#666"/>
  <circle cx="115" cy="54" r="2" fill="#111"/>
  <!-- Feux (rouge=arrière gauche, jaune=avant droite) -->
  <rect x="5" y="48" width="4" height="5" fill="#FF4444"/>
  <rect x="151" y="48" width="4" height="5" fill="#FFCC00"/>
</svg>
